<svg width="14" height="18" fill="none" xmlns="http://www.w3.org/2000/svg"><path d="M12.727 17H1.273a.242.242 0 0 1-.242-.254L1.576 5.29a.242.242 0 0 1 .242-.23h10.364c.13 0 .236.1.242.23l.546 11.455a.242.242 0 0 1-.243.254zm-11.2-.485h10.946l-.522-10.97H2.049l-.522 10.97z" fill="#000" stroke="#000" stroke-width=".8"/><path d="M9.62 6.515a.243.243 0 0 1-.242-.242v-2.41A2.381 2.381 0 0 0 7 1.485a2.381 2.381 0 0 0-2.378 2.378v2.41a.243.243 0 0 1-.485 0v-2.41A2.866 2.866 0 0 1 7 1a2.866 2.866 0 0 1 2.863 2.863v2.41a.242.242 0 0 1-.242.242z" fill="#000" stroke="#000" stroke-width=".8"/></svg>